<svg width="29" height="30" viewBox="0 0 29 30" fill="none" xmlns="http://www.w3.org/2000/svg">
<path d="M11.2115 28.9343C6.17863 27.5754 2.82063 24.5745 0.855469 19.4789C4.31724 20.3203 7.42941 21.0733 10.5397 21.8339C13.4619 22.5484 16.3926 23.232 19.298 24.0099C20.4117 24.3081 20.8889 24.095 21.171 22.9004C22.492 17.3078 23.9097 11.7381 25.3 6.13135C28.4835 8.50946 29.8531 15.5559 27.6678 20.5069C24.8035 26.9961 18.1648 30.4467 11.2115 28.9343Z" fill="#FF7849"/>
<path d="M0.328384 12.6818C0.554012 11.7404 0.755189 10.9308 0.995395 9.96408C4.55209 10.8337 7.97257 11.6583 11.3866 12.5087C13.9137 13.1382 13.9534 13.1402 14.5807 10.6061C15.365 7.43822 16.1211 4.26339 16.9811 0.712891C18.6464 1.39747 20.1965 1.97482 21.6765 2.69626C21.9559 2.83249 22.1488 3.58777 22.0556 3.97998C20.898 8.85316 19.6551 13.7061 18.4981 18.5794C18.2607 19.5794 17.822 19.9115 16.8451 19.67C11.6242 18.3794 6.39484 17.1223 1.17885 15.812C-0.723293 15.3342 0.381569 13.8781 0.328384 12.6818Z" fill="#FF7849"/>
<path d="M12.8237 0.79541C12.432 3.18899 11.958 5.57623 11.376 7.93685C11.3136 8.1903 10.5777 8.49977 10.231 8.42538C7.82163 7.90845 5.43259 7.29691 2.80615 6.65969C5.42063 3.22936 8.66957 1.34899 12.8237 0.79541Z" fill="#FF7849"/>
</svg>
