<svg width="101" height="22" viewBox="0 0 101 22" fill="none" xmlns="http://www.w3.org/2000/svg">
<path d="M0.731445 13.4997C0.862833 10.1682 1.99696 7.53252 5.13308 6.30642C7.95713 5.2023 10.745 5.41937 13.1647 7.43868C16.3253 10.0763 16.5466 16.2607 13.6425 19.3554C10.898 22.2801 5.67873 22.323 2.8053 19.4394C1.20718 17.8356 0.763236 15.8134 0.731445 13.4997ZM11.169 9.23021C8.50867 7.37879 5.46482 7.91993 4.34131 10.5274C3.52023 12.433 3.44632 14.4254 4.20352 16.394C4.92392 18.2669 6.39736 19.2285 8.37905 19.1633C10.2429 19.1021 11.7048 18.0748 12.2394 16.1991C12.9129 13.836 12.9352 11.4984 11.169 9.23021Z" fill="#FF7849"/>
<path d="M17.2528 21.1439C17.0668 20.5754 16.9625 20.0584 16.9616 19.5413C16.9504 13.211 16.9543 6.88062 16.9543 0.424316C17.919 0.424316 18.7824 0.424316 19.8622 0.424316C19.8622 2.73891 19.8622 5.07499 19.8622 7.44132C21.1469 6.89601 22.1949 6.21179 23.3282 6.01203C27.9722 5.1935 31.4364 8.80382 31.2107 14.0937C31.0187 18.5921 28.4965 21.6433 24.7015 21.5746C23.1643 21.5468 21.6399 20.8089 20.0501 20.378C19.8945 21.9367 18.433 21.0707 17.2528 21.1439ZM20.865 9.96822C19.5591 12.1184 19.6246 14.4048 20.3983 16.6618C20.9306 18.2146 22.1321 19.1875 23.845 19.2464C25.6159 19.3073 27.0478 18.4696 27.4938 16.8013C27.9136 15.231 27.9996 13.5087 27.889 11.8766C27.7756 10.2042 26.7724 8.93539 25.0683 8.43206C23.4218 7.94569 22.0726 8.48186 20.865 9.96822Z" fill="#FF7849"/>
<path d="M35.9736 16.6659C34.7797 13.3286 33.6359 10.1046 32.4893 6.87268C35.1977 6.19576 35.3873 6.2941 36.1769 8.69642C37.162 11.6936 38.149 14.6901 39.2696 18.0952C39.6903 17.1797 40.0344 16.582 40.2472 15.9408C41.0275 13.5889 41.7725 11.2251 42.5151 8.86078C43.2933 6.38328 43.3189 6.36095 46.2167 6.7812C45.0711 10.0232 43.937 13.2396 42.7976 16.4541C42.3572 17.6966 41.7706 18.9055 41.4916 20.1824C41.1462 21.7635 40.0373 21.4394 38.9634 21.5588C37.7359 21.6952 37.4464 20.9826 37.1647 20.0671C36.8238 18.959 36.4075 17.8741 35.9736 16.6659Z" fill="#FF7849"/>
<path d="M48.0241 9.90212C49.4271 6.32181 53.5005 4.83588 57.2588 6.01259C60.4989 7.02708 62.2271 10.2752 61.6202 14.3523C57.9417 14.3523 54.2267 14.3523 50.5207 14.3523C50.4924 16.8118 51.4635 18.2551 53.4293 18.8853C55.3255 19.4932 57.0054 18.7589 58.3405 17.2905C58.9734 16.5945 60.2188 16.4554 61.49 15.9414C61.3137 18.0399 60.4393 19.1399 59.3275 20.0267C55.0396 23.4466 48.2744 20.8847 47.5472 15.4619C47.3106 13.6977 47.8148 11.8341 48.0241 9.90212ZM50.9825 9.87527C50.7414 10.542 50.5003 11.2086 50.224 11.9726C53.2112 11.9726 55.9606 11.9726 58.7796 11.9726C58.6979 10.0836 57.8486 8.88026 56.2129 8.2672C54.3035 7.55156 52.6181 8.04332 50.9825 9.87527Z" fill="#FF7849"/>
<path d="M65.8065 7.91645C65.8229 8.2962 65.8381 8.54779 65.887 9.36149C67.14 7.0277 68.6938 5.99458 71.0941 6.57942C71.0941 7.37544 71.0941 8.22409 71.0941 9.06865C67.1925 9.666 65.8703 10.9081 65.8131 14.0554C65.7786 15.9543 65.8009 17.8542 65.7981 19.7536C65.7972 20.3246 65.798 20.8956 65.798 21.5757C64.8182 21.5757 63.9604 21.5757 63.0083 21.5757C63.0083 16.686 63.0083 11.854 63.0083 6.74502C63.9493 7.2869 65.3958 5.65813 65.8065 7.91645Z" fill="#FF7849"/>
<path d="M75.8038 6.1757C77.741 6.16845 79.6141 5.93135 81.3632 6.29329C83.4396 6.72296 84.548 8.47478 84.5465 10.484C83.2125 10.6332 81.9972 10.9694 81.1765 9.21928C80.5492 7.88167 77.5972 7.7343 76.4398 8.70801C75.506 9.49367 75.5866 10.7705 76.6948 11.3117C77.3916 11.6521 78.2046 11.7498 78.9585 11.9793C80.3163 12.3928 81.7113 12.7229 83.0121 13.2736C84.491 13.8998 85.2652 15.1289 85.3005 16.7715C85.3364 18.4415 84.6701 19.7338 83.2366 20.6152C80.9303 22.0331 76.5015 21.8624 74.325 20.2258C73.0426 19.2616 72.2656 18.0103 72.372 16.2215C73.2624 16.2215 74.0889 16.2215 74.935 16.2215C76.2618 18.859 78.1407 19.8733 80.5282 18.9672C81.2154 18.7064 82.0615 17.8165 82.0951 17.1763C82.1285 16.5392 81.3693 15.5472 80.7144 15.2541C79.4346 14.6813 77.9169 14.6459 76.6261 14.0899C75.4171 13.5693 74.0437 12.8958 73.3276 11.8779C71.89 9.83433 73.0137 7.45935 75.8038 6.1757Z" fill="#FF7849"/>
<path d="M98.7867 14.4296C95.6855 14.4292 92.7393 14.4292 89.8082 14.4292C89.629 16.4419 90.642 18.1812 92.2872 18.8498C94.0306 19.5584 96.3667 19.2403 97.1732 17.8031C98.0676 16.2093 99.278 16.4108 100.631 16.528C100.416 19.585 97.1379 21.8435 93.4152 21.5502C88.9465 21.1982 86.1422 17.5796 86.6239 12.787C87.1067 7.98502 90.3763 5.2364 94.9555 5.78311C99.1848 6.28806 101.521 9.57826 100.899 14.4299C100.268 14.4299 99.6051 14.4299 98.7867 14.4296ZM97.0729 9.37252C95.5303 7.8503 93.722 7.69449 91.8547 8.55163C90.4312 9.20501 89.7078 10.4243 89.6418 12.0274C92.524 12.0274 95.2587 12.0274 98.31 12.0274C97.8747 11.0405 97.5478 10.2993 97.0729 9.37252Z" fill="#FF7849"/>
</svg>
